<svg width="105" height="24" viewBox="0 0 105 24" fill="none" xmlns="http://www.w3.org/2000/svg">
<path d="M5.5493 4.44861V10.3962H13.6774V14.6031H5.5493V23.7421H0V0.257874H15.3095V4.44861H5.5493Z" fill="white"/>
<path d="M24.0385 4.44861V9.92879H31.5137V13.9583H24.0385V19.5514H33.7987V23.7421H18.4892V0.257874H33.7987V4.44861H24.0385Z" fill="white"/>
<path d="M44.9378 11.2988C45.6886 11.2988 46.3252 11.2075 46.8475 11.0248C47.3806 10.8314 47.8159 10.5681 48.1532 10.235C48.4905 9.90193 48.7353 9.51509 48.8876 9.07453C49.04 8.62322 49.1161 8.13967 49.1161 7.62389C49.1161 6.59233 48.7734 5.78642 48.0879 5.20616C47.4133 4.6259 46.3632 4.33578 44.9378 4.33578H42.7181V11.2988H44.9378ZM56.6567 23.7421H51.6623C50.7374 23.7421 50.0737 23.3982 49.6711 22.7105L45.7213 15.8925C45.5363 15.6024 45.3296 15.3929 45.1011 15.2639C44.8726 15.1242 44.5461 15.0544 44.1218 15.0544H42.7181V23.7421H37.2015V0.257874H44.9378C46.657 0.257874 48.1205 0.435174 49.3283 0.789774C50.547 1.13363 51.5372 1.61717 52.2988 2.24041C53.0714 2.86365 53.6317 3.59971 53.9799 4.44861C54.3281 5.2975 54.5022 6.22161 54.5022 7.22094C54.5022 7.98386 54.3988 8.70381 54.1921 9.38077C53.9854 10.0577 53.6807 10.6863 53.2781 11.2666C52.8755 11.8361 52.375 12.3465 51.7765 12.7978C51.189 13.2491 50.5089 13.6199 49.7364 13.91C50.0954 14.0927 50.4327 14.3237 50.7483 14.6031C51.0638 14.8717 51.3467 15.1941 51.597 15.5702L56.6567 23.7421Z" fill="white"/>
<path d="M103.915 23.7421H98.3987C98.0396 23.7421 97.7458 23.6561 97.5173 23.4842C97.2997 23.3123 97.1256 23.1081 96.995 22.8717L92.2292 14.6514C92.1421 14.8878 92.0442 15.092 91.9354 15.2639L87.4959 22.8717C87.3436 23.0866 87.1641 23.2854 86.9573 23.4681C86.7506 23.6508 86.484 23.7421 86.1576 23.7421H81L88.6548 11.6534L81.2938 0.257874H86.8104C87.1695 0.257874 87.4306 0.306228 87.5939 0.402936C87.768 0.4889 87.9203 0.639337 88.0509 0.854246L92.7841 8.76828C92.8385 8.62859 92.8983 8.49427 92.9636 8.36533C93.0398 8.23638 93.1214 8.10206 93.2085 7.96237L97.3541 0.934837C97.5064 0.698437 97.6642 0.52651 97.8274 0.419055C98.0015 0.311601 98.2137 0.257874 98.464 0.257874H103.752L96.2932 11.4278L103.915 23.7421Z" fill="white"/>
<path d="M69.0818 4.33538C68.4977 4.99378 67.5844 5.98139 67.0534 6.54423C66.5118 7.09644 65.949 7.71237 65.7897 7.8929C65.6304 8.08405 65.4605 8.24334 65.4074 8.24334C65.3543 8.24334 65.3118 7.61679 65.3118 6.84157V5.42918L63.2198 7.52122L61.1278 9.61325L61.4888 9.99555L61.8499 10.3672L63.0287 9.19909C63.6764 8.55131 64.2287 8.04157 64.2499 8.07343C64.2818 8.09467 64.2924 9.05042 64.2711 10.1973L64.2393 12.2787H63.4534H62.657V12.8097V13.3301L63.4641 13.3619L64.2711 13.3938L64.2499 15.7407C64.2499 17.0256 64.2711 18.1619 64.3136 18.2575C64.3561 18.3849 64.5048 18.438 64.8446 18.438H65.3118L65.3331 15.9106L65.3649 13.3938L66.2145 13.3407L67.0641 13.2876V12.8097V12.3318L66.2145 12.2787L65.3649 12.2256L65.3331 11.0894L65.3012 9.95308L65.9915 9.19909C67.3933 7.66989 69.1773 5.80086 69.241 5.80086C69.2729 5.80086 69.2835 8.92299 69.2623 12.7248C69.2517 16.5371 69.2623 19.7655 69.2941 19.9035C69.3472 20.1053 69.4216 20.1371 69.8251 20.1371H70.303V15.454V10.7708L71.5455 9.4752C72.2251 8.77431 72.8198 8.169 72.8729 8.15839C72.9154 8.13715 72.9579 10.4203 72.9579 13.2239V18.3318H73.4888H74.0198V11.8752L74.0092 5.42918L72.2357 7.26635C71.2587 8.2752 70.4304 9.0929 70.3879 9.0929C70.3349 9.0929 70.303 7.75485 70.303 6.11945C70.303 4.48405 70.2711 3.146 70.2287 3.146C70.1756 3.146 69.6658 3.67697 69.0818 4.33538Z" fill="white"/>
<path fill-rule="evenodd" clip-rule="evenodd" d="M80.8504 12.8495C80.4146 19.0805 75.2218 24 68.88 24C62.2526 24 56.88 18.6274 56.88 12C56.88 5.37258 62.2526 0 68.88 0C75.1857 0 80.3554 4.86366 80.8425 11.0442H78.8171C78.336 5.9795 74.0707 2.01768 68.88 2.01768C63.3669 2.01768 58.8977 6.4869 58.8977 12C58.8977 17.513 63.3669 21.9823 68.88 21.9823C74.1069 21.9823 78.3955 17.965 78.8266 12.8495H80.8504Z" fill="white"/>
</svg>
